<?xml version="1.0" encoding="UTF-8" standalone="no"?>
<!-- Created with Inkscape (http://www.inkscape.org/) -->

<svg
   xmlns:dc="http://purl.org/dc/elements/1.1/"
   xmlns:cc="http://creativecommons.org/ns#"
   xmlns:rdf="http://www.w3.org/1999/02/22-rdf-syntax-ns#"
   xmlns:svg="http://www.w3.org/2000/svg"
   xmlns="http://www.w3.org/2000/svg"
   xmlns:xlink="http://www.w3.org/1999/xlink"
   version="1.1"
   width="532.21796"
   height="774.73035"
   id="svg2">
  <defs
     id="defs4">
    <radialGradient
       cx="61.518883"
       cy="132.28575"
       r="29.036913"
       fx="61.518883"
       fy="132.28575"
       id="radialGradient2801"
       xlink:href="#linearGradient2795"
       gradientUnits="userSpaceOnUse"
       gradientTransform="matrix(1,0,0,0.177966,0,108.7434)" />
    <linearGradient
       x1="172.94208"
       y1="76.176224"
       x2="26.670298"
       y2="76.313133"
       id="linearGradient2258"
       xlink:href="#linearGradient4689"
       gradientUnits="userSpaceOnUse"
       gradientTransform="matrix(0.562541,0,0,0.567972,-11.5974,-7.60954)" />
    <linearGradient
       x1="224.23996"
       y1="144.75717"
       x2="-65.308502"
       y2="144.75717"
       id="linearGradient2255"
       xlink:href="#linearGradient4671"
       gradientUnits="userSpaceOnUse"
       gradientTransform="matrix(0.562541,0,0,0.567972,-11.5974,-7.60954)" />
    <linearGradient
       x1="224.23996"
       y1="144.75717"
       x2="-65.308502"
       y2="144.75717"
       id="linearGradient2250"
       xlink:href="#linearGradient4671"
       gradientUnits="userSpaceOnUse"
       gradientTransform="translate(100.2702,99.61116)" />
    <linearGradient
       x1="172.94208"
       y1="77.475983"
       x2="26.670298"
       y2="76.313133"
       id="linearGradient2248"
       xlink:href="#linearGradient4689"
       gradientUnits="userSpaceOnUse"
       gradientTransform="translate(100.2702,99.61116)" />
    <linearGradient
       x1="224.23996"
       y1="144.75717"
       x2="-65.308502"
       y2="144.75717"
       id="linearGradient2589"
       xlink:href="#linearGradient4671"
       gradientUnits="userSpaceOnUse"
       gradientTransform="translate(100.2702,99.61116)" />
    <linearGradient
       x1="172.94208"
       y1="77.475983"
       x2="26.670298"
       y2="76.313133"
       id="linearGradient2587"
       xlink:href="#linearGradient4689"
       gradientUnits="userSpaceOnUse"
       gradientTransform="translate(100.2702,99.61116)" />
    <linearGradient
       x1="172.94208"
       y1="77.475983"
       x2="26.670298"
       y2="76.313133"
       id="linearGradient2990"
       xlink:href="#linearGradient4689"
       gradientUnits="userSpaceOnUse"
       gradientTransform="translate(100.2702,99.61116)" />
    <linearGradient
       x1="224.23996"
       y1="144.75717"
       x2="-65.308502"
       y2="144.75717"
       id="linearGradient2987"
       xlink:href="#linearGradient4671"
       gradientUnits="userSpaceOnUse"
       gradientTransform="translate(100.2702,99.61116)" />
    <linearGradient
       id="linearGradient4689">
      <stop
         id="stop4691"
         style="stop-color:#5a9fd4;stop-opacity:1"
         offset="0" />
      <stop
         id="stop4693"
         style="stop-color:#306998;stop-opacity:1"
         offset="1" />
    </linearGradient>
    <linearGradient
       id="linearGradient4671">
      <stop
         id="stop4673"
         style="stop-color:#ffd43b;stop-opacity:1"
         offset="0" />
      <stop
         id="stop4675"
         style="stop-color:#ffe873;stop-opacity:1"
         offset="1" />
    </linearGradient>
    <linearGradient
       id="linearGradient3236">
      <stop
         id="stop3244"
         style="stop-color:#f4f4f4;stop-opacity:1"
         offset="0" />
      <stop
         id="stop3240"
         style="stop-color:#ffffff;stop-opacity:1"
         offset="1" />
    </linearGradient>
    <linearGradient
       id="linearGradient3676">
      <stop
         id="stop3678"
         style="stop-color:#b2b2b2;stop-opacity:0.5"
         offset="0" />
      <stop
         id="stop3680"
         style="stop-color:#b3b3b3;stop-opacity:0"
         offset="1" />
    </linearGradient>
    <linearGradient
       id="linearGradient2787">
      <stop
         id="stop2789"
         style="stop-color:#7f7f7f;stop-opacity:0.5"
         offset="0" />
      <stop
         id="stop2791"
         style="stop-color:#7f7f7f;stop-opacity:0"
         offset="1" />
    </linearGradient>
    <linearGradient
       id="linearGradient2795">
      <stop
         id="stop2797"
         style="stop-color:#b8b8b8;stop-opacity:0.49803922"
         offset="0" />
      <stop
         id="stop2799"
         style="stop-color:#7f7f7f;stop-opacity:0"
         offset="1" />
    </linearGradient>
    <linearGradient
       id="linearGradient4671-9">
      <stop
         id="stop4673-4"
         style="stop-color:#ffd33b;stop-opacity:0.42622951"
         offset="0" />
      <stop
         id="stop4675-0"
         style="stop-color:#ffea73;stop-opacity:0.42622951"
         offset="1" />
    </linearGradient>
    <linearGradient
       x1="26.648937"
       y1="20.603781"
       x2="135.66525"
       y2="114.39767"
       id="linearGradient3178-5"
       xlink:href="#linearGradient4689-3"
       gradientUnits="userSpaceOnUse"
       gradientTransform="matrix(0.562541,0,0,0.567972,1364.3687,118.3938)" />
    <linearGradient
       id="linearGradient4689-3">
      <stop
         id="stop4691-4"
         style="stop-color:#5a9fd4;stop-opacity:0.4180328"
         offset="0" />
      <stop
         id="stop4693-8"
         style="stop-color:#306998;stop-opacity:0.42622951"
         offset="1" />
    </linearGradient>
    <linearGradient
       x1="150.96111"
       y1="192.35176"
       x2="112.03144"
       y2="137.27299"
       id="linearGradient3244"
       xlink:href="#linearGradient4671-9"
       gradientUnits="userSpaceOnUse"
       gradientTransform="matrix(1.0430501,0,0,1.0531201,328.01655,144.3239)" />
    <linearGradient
       x1="26.648937"
       y1="20.603781"
       x2="135.66525"
       y2="114.39767"
       id="linearGradient3247"
       xlink:href="#linearGradient4689-3"
       gradientUnits="userSpaceOnUse"
       gradientTransform="matrix(1.0430501,0,0,1.0531201,328.01655,144.3239)" />
  </defs>
  <metadata
     id="metadata7">
    <rdf:RDF>
      <cc:Work
         rdf:about="">
        <dc:format>image/svg+xml</dc:format>
        <dc:type
           rdf:resource="http://purl.org/dc/dcmitype/StillImage" />
        <dc:title></dc:title>
      </cc:Work>
    </rdf:RDF>
  </metadata>
  <g
     transform="translate(-192.76007,-94.503991)"
     id="layer1">
    <path
       d="m 269.25766,346.38174 2.02309,-134.31296 c 18.88429,-70.51823 72.61243,-109.74727 128.74163,-117.564789 9.85089,0 131.3452,1.641815 131.3452,1.641815 C 591.01865,113.33673 632.91371,157.50005 643.011,215.8162 l 1.74141,134.62882 42.40549,-23.28418 c 34.15344,-7.23713 46.50442,10.84901 31.57578,46.25251 -99.12726,84.92526 -382.83075,106.05165 -522.19676,4.56125 -11.35934,-33.60304 3.97473,-48.53652 31.67536,-49.65282 z"
       id="path3015"
       style="fill:#000000;fill-opacity:1;stroke:none" />
    <g
       id="g23378">
      <path
         d="m 366.75069,668.67201 c 60.84912,-55.543 112.55905,30.23325 76.04148,63.85162 -57.20503,52.66342 -169.62233,49.41441 -196.19861,-26.12112 -5.13855,-14.60487 3.96083,-48.04039 35.40862,-55.72505 21.6611,-5.29316 38.31451,6.93634 37.7305,23.79924 -0.65164,18.81561 -18.17603,18.26499 -33.66721,17.41408 11.27812,-0.18554 23.99548,-6.62218 23.21877,-17.41408 -0.5729,-7.96008 -42.29987,-27.3293 -43.5352,19.15548 -0.51631,19.42857 30.9815,38.95414 101.00165,-24.96017 z"
         id="path3017"
         style="fill:#000000;fill-opacity:1;stroke:none" />
      <path
         d="m 546.92186,668.67201 c -60.84912,-55.543 -112.55905,30.23325 -76.04148,63.85162 57.20503,52.66342 169.62233,49.41441 196.19861,-26.12112 5.13855,-14.60487 -3.96083,-48.04039 -35.40862,-55.72505 -21.6611,-5.29316 -38.31451,6.93634 -37.7305,23.79924 0.65164,18.81561 18.17603,18.26499 33.66721,17.41408 -11.27812,-0.18554 -23.99548,-6.62218 -23.21877,-17.41408 0.5729,-7.96008 42.29987,-27.3293 43.5352,19.15548 0.51631,19.42857 -30.9815,38.95414 -101.00165,-24.96017 z"
         id="path3017-1"
         style="fill:#000000;fill-opacity:1;stroke:none" />
    </g>
    <path
       d="m 457.64182,166.02387 c -8.49899,0.0395 -16.61528,0.76432 -23.75664,2.028 -21.03803,3.71671 -24.85764,11.49608 -24.85764,25.84258 l 0,18.94736 49.7151,0 0,6.31579 -49.7151,0 -18.65764,0 c -14.44867,0 -27.10027,8.68444 -31.05745,25.20521 -4.56461,18.93664 -4.76709,30.75342 0,50.52629 3.53387,14.71818 11.97334,25.20521 26.42201,25.20521 l 17.09327,0 0,-22.71366 c 0,-16.40927 14.19762,-30.88362 31.05745,-30.88362 l 49.65707,0 c 13.82288,0 24.85764,-11.38123 24.85764,-25.26315 l 0,-47.33943 c 0,-13.47307 -11.3661,-23.59396 -24.85764,-25.84258 -8.54034,-1.42163 -17.40163,-2.0675 -25.90043,-2.028 z m -26.88556,15.23901 c 5.13514,0 9.32873,4.2621 9.32873,9.50265 0,5.22199 -4.19359,9.44471 -9.32873,9.44471 -5.15368,0 -9.32891,-4.22272 -9.32891,-9.44471 0,-5.24055 4.17523,-9.50265 9.32891,-9.50265 z"
       id="path1948-7"
       style="fill:url(#linearGradient3247);fill-opacity:1" />
    <path
       d="m 514.5997,219.1576 0,22.07628 c 0,17.11546 -14.5106,31.521 -31.05745,31.521 l -49.65707,0 c -13.60205,0 -24.85764,11.64142 -24.85764,25.26315 l 0,47.33943 c 0,13.47307 11.7158,21.39779 24.85764,25.26315 15.73695,4.6273 30.82791,5.46357 49.65707,0 12.51606,-3.62378 24.85764,-10.91667 24.85764,-25.26315 l 0,-18.94736 -49.65725,0 0,-6.31579 49.65725,0 24.85745,0 c 14.44867,0 19.83283,-10.07821 24.85764,-25.20521 5.1904,-15.573 4.96957,-30.54897 0,-50.52629 -3.57077,-14.38366 -10.39061,-25.20521 -24.85764,-25.20521 l -18.65764,0 z m -27.92853,119.88407 c 5.15368,2e-5 9.32891,4.22274 9.32891,9.44471 0,5.24055 -4.17523,9.50266 -9.32891,9.50266 -5.13514,0 -9.32873,-4.26211 -9.32873,-9.50266 0,-5.22197 4.19359,-9.44471 9.32873,-9.44471 z"
       id="path1950-5"
       style="fill:url(#linearGradient3244);fill-opacity:1" />
    <path
       d="m 176.46265,485.82418 a 98.679771,71.978188 0 1 1 0.053,2.35921"
       transform="matrix(0.74623712,0,0,0.98945086,106.95801,44.586518)"
       id="path3063"
       style="fill:none;stroke:#000000;stroke-width:15.90391254;stroke-linecap:round;stroke-linejoin:round;stroke-miterlimit:4;stroke-opacity:1;stroke-dasharray:none;stroke-dashoffset:0" />
    <g
       transform="matrix(1.304607,0,0,1,171.73709,34.478114)"
       id="g3917"
       style="stroke-width:4.5;stroke-miterlimit:4;stroke-dasharray:none">
      <path
         d="m 20.316424,507.5918 a 8.9972734,13.060558 0 1 1 0.0048,0.42808"
         transform="matrix(0.44087832,0,0,1.1037162,20.789847,-52.065011)"
         id="path3835"
         style="fill:none;stroke:#000000;stroke-width:6.45096111;stroke-linecap:round;stroke-linejoin:round;stroke-miterlimit:4;stroke-opacity:1;stroke-dasharray:none;stroke-dashoffset:0" />
      <path
         d="m 20.316424,507.5918 a 8.9972734,13.060558 0 1 1 0.0048,0.42808"
         transform="matrix(0.44087832,0,0,1.1037162,20.791978,4.0953707)"
         id="path3835-7"
         style="fill:none;stroke:#000000;stroke-width:6.45096111;stroke-linecap:round;stroke-linejoin:round;stroke-miterlimit:4;stroke-opacity:1;stroke-dasharray:none;stroke-dashoffset:0" />
      <path
         d="M 33.376982,607.72273 33.5221,577.10298"
         id="path3855"
         style="fill:none;stroke:#000000;stroke-width:4.5;stroke-linecap:butt;stroke-linejoin:miter;stroke-miterlimit:4;stroke-opacity:1;stroke-dasharray:none" />
      <path
         d="m 33.44954,551.48978 0.145118,-30.61975"
         id="path3855-5"
         style="fill:none;stroke:#000000;stroke-width:4.5;stroke-linecap:butt;stroke-linejoin:miter;stroke-miterlimit:4;stroke-opacity:1;stroke-dasharray:none" />
      <path
         d="m 20.316424,507.5918 a 8.9972734,13.060558 0 1 1 0.0048,0.42808"
         transform="matrix(0.44087832,0,0,1.1037162,20.787716,59.934243)"
         id="path3835-9"
         style="fill:none;stroke:#000000;stroke-width:6.45096111;stroke-linecap:round;stroke-linejoin:round;stroke-miterlimit:4;stroke-opacity:1;stroke-dasharray:none;stroke-dashoffset:0" />
      <path
         d="m 20.316424,507.5918 a 8.9972734,13.060558 0 1 1 0.0048,0.42808"
         transform="matrix(0.44087832,0,0,1.1037162,20.789847,116.09463)"
         id="path3835-7-4"
         style="fill:none;stroke:#000000;stroke-width:6.45096111;stroke-linecap:round;stroke-linejoin:round;stroke-miterlimit:4;stroke-opacity:1;stroke-dasharray:none;stroke-dashoffset:0" />
      <path
         d="m 33.374851,719.72198 0.145118,-30.61974"
         id="path3855-8"
         style="fill:none;stroke:#000000;stroke-width:4.5;stroke-linecap:butt;stroke-linejoin:miter;stroke-miterlimit:4;stroke-opacity:1;stroke-dasharray:none" />
      <path
         d="m 33.447409,663.48904 0.145118,-30.61975"
         id="path3855-5-8"
         style="fill:none;stroke:#000000;stroke-width:4.5;stroke-linecap:butt;stroke-linejoin:miter;stroke-miterlimit:4;stroke-opacity:1;stroke-dasharray:none" />
      <path
         d="m 20.316424,507.5918 a 8.9972734,13.060558 0 1 1 0.0048,0.42808"
         transform="matrix(0.44087832,0,0,1.1037162,20.787716,172.39857)"
         id="path3835-6"
         style="fill:none;stroke:#000000;stroke-width:6.45096111;stroke-linecap:round;stroke-linejoin:round;stroke-miterlimit:4;stroke-opacity:1;stroke-dasharray:none;stroke-dashoffset:0" />
      <path
         d="m 20.316424,507.5918 a 8.9972734,13.060558 0 1 1 0.0048,0.42808"
         transform="matrix(0.44087832,0,0,1.1037162,20.789847,228.55895)"
         id="path3835-7-3"
         style="fill:none;stroke:#000000;stroke-width:6.45096111;stroke-linecap:round;stroke-linejoin:round;stroke-miterlimit:4;stroke-opacity:1;stroke-dasharray:none;stroke-dashoffset:0" />
      <path
         d="m 33.374851,832.1863 0.145118,-30.61974"
         id="path3855-7"
         style="fill:none;stroke:#000000;stroke-width:4.5;stroke-linecap:butt;stroke-linejoin:miter;stroke-miterlimit:4;stroke-opacity:1;stroke-dasharray:none" />
      <path
         d="m 33.447409,775.95336 0.145118,-30.61975"
         id="path3855-5-2"
         style="fill:none;stroke:#000000;stroke-width:4.5;stroke-linecap:butt;stroke-linejoin:miter;stroke-miterlimit:4;stroke-opacity:1;stroke-dasharray:none" />
    </g>
    <path
       d="m 233.75341,522.67163 c -8.17385,0.0852 -5.819,0.34557 -8.00385,2.46272 -6.66732,-7.15205 -13.17627,-2.00205 -12.92929,1.94966 0.86788,9.95802 8.04105,7.3446 13.64758,4.41237 2.05764,0.54502 -0.78947,3.20932 7.28556,2.77056 z"
       id="path3933"
       style="fill:#000000;fill-opacity:1;stroke:none" />
    <g
       transform="translate(511.27374,33.441125)"
       id="g5990">
      <path
         d="m 186.5,443.85852 a 63,63 0 1 1 -126,0 63,63 0 1 1 126,0 z"
         transform="matrix(1.0873016,0,0,1.0396825,-333.63728,30.79133)"
         id="path22181-1-4-5"
         style="fill:#263767;fill-opacity:1;fill-rule:nonzero;stroke:none" />
      <path
         d="m -372.40625,346.34375 c -0.33502,0.25295 -0.67009,0.49123 -1,0.75 l 0,14.09375 2.78125,0 0,-14.84375 -1.78125,0 z m 2.71875,0 0,14.84375 2.78125,0 0,-14.84375 -2.78125,0 z m 3.71875,0 0,14.84375 2.78125,0 0,-14.84375 -2.78125,0 z m 3.71875,0 0,14.84375 2.78125,0 0,-14.84375 -2.78125,0 z m 3.71875,0 0,14.84375 2.78125,0 0,-14.84375 -2.78125,0 z m 3.71875,0 0,14.84375 2.78125,0 0,-14.84375 -2.78125,0 z m 3.71875,0 0,14.84375 2.78125,0 0,-14.84375 -2.78125,0 z m 3.71875,0 0,14.84375 2.78125,0 0,-14.84375 -2.78125,0 z m 3.6875,0 0,14.84375 2.8125,0 0,-14.84375 -2.8125,0 z m 3.71875,0 0,14.84375 2.8125,0 0,-14.84375 -2.8125,0 z m 3.71875,0 0,14.84375 2.78125,0 0,-14.84375 -2.78125,0 z m 3.71875,0 0,14.84375 2.78125,0 0,-14.84375 -2.78125,0 z m 3.71875,0 0,14.84375 2.78125,0 0,-14.84375 -2.78125,0 z m 18.59375,0 0,14.84375 2.78125,0 0,-14.84375 -2.78125,0 z m 7.40625,0 0,14.84375 2.8125,0 0,-14.84375 -2.8125,0 z m 3.71875,0 0,14.84375 2.78125,0 0,-14.84375 -2.78125,0 z m 3.71875,0 0,14.84375 2.78125,0 0,-14.84375 -2.78125,0 z m 3.71875,0 0,14.84375 2.78125,0 0,-14.84375 -2.78125,0 z m 3.71875,0 0,14.84375 2.78125,0 0,-12.90625 c -0.79905,-0.66272 -1.60668,-1.31019 -2.4375,-1.9375 l -0.34375,0 z m -86.375,1.5 c -0.95826,0.77862 -1.90072,1.57912 -2.8125,2.40625 l 0,10.9375 2.8125,0 0,-13.34375 z m 97.53125,8.6875 0,4.65625 2.78125,0 0,-1.15625 c -0.88338,-1.19671 -1.81803,-2.3643 -2.78125,-3.5 z m -100.34375,5.125 0,14.875 2.8125,0 0,-14.875 -2.8125,0 z m 3.71875,0 0,14.875 2.78125,0 0,-14.875 -2.78125,0 z m 3.71875,0 0,14.875 2.78125,0 0,-14.875 -2.78125,0 z m 3.71875,0 0,14.875 2.78125,0 0,-14.875 -2.78125,0 z m 3.71875,0 0,14.875 2.78125,0 0,-14.875 -2.78125,0 z m 3.71875,0 0,14.875 2.78125,0 0,-14.875 -2.78125,0 z M -377.125,377 l 0,14.84375 2.8125,0 0,-14.84375 -2.8125,0 z m 3.71875,0 0,14.84375 2.78125,0 0,-14.84375 -2.78125,0 z m 3.71875,0 0,14.84375 2.78125,0 0,-14.84375 -2.78125,0 z m 3.71875,0 0,14.84375 2.78125,0 0,-14.84375 -2.78125,0 z m 3.71875,0 0,14.84375 2.78125,0 0,-14.84375 -2.78125,0 z m 3.71875,0 0,14.84375 2.78125,0 0,-14.84375 -2.78125,0 z m 3.71875,0 0,14.84375 2.78125,0 0,-14.84375 -2.78125,0 z m 3.71875,0 0,14.84375 2.78125,0 0,-14.84375 -2.78125,0 z m 3.71875,0 0,14.84375 2.78125,0 0,-14.84375 -2.78125,0 z m 3.6875,0 0,14.84375 2.8125,0 0,-14.84375 -2.8125,0 z m 3.71875,0 0,14.84375 2.8125,0 0,-14.84375 -2.8125,0 z m 3.71875,0 0,14.84375 2.78125,0 0,-14.84375 -2.78125,0 z m 3.71875,0 0,14.84375 2.78125,0 0,-14.84375 -2.78125,0 z m 3.71875,0 0,14.84375 2.78125,0 0,-14.84375 -2.78125,0 z m 3.71875,0 0,14.84375 2.78125,0 0,-14.84375 -2.78125,0 z m 3.71875,0 0,14.84375 2.78125,0 0,-14.84375 -2.78125,0 z m 3.71875,0 0,14.84375 2.78125,0 0,-14.84375 -2.78125,0 z m 3.71875,0 0,14.84375 2.78125,0 0,-14.84375 -2.78125,0 z m 3.71875,0 0,14.84375 2.78125,0 0,-14.84375 -2.78125,0 z m 3.71875,0 0,14.84375 2.78125,0 0,-14.84375 -2.78125,0 z m 3.6875,0 0,14.84375 2.8125,0 0,-14.84375 -2.8125,0 z m 3.71875,0 0,14.84375 2.78125,0 0,-14.84375 -2.78125,0 z m 11.15625,0 0,14.84375 2.78125,0 0,-14.84375 -2.78125,0 z m 3.71875,0 0,14.84375 2.78125,0 0,-14.84375 -2.78125,0 z m 3.71875,0 0,14.84375 2.78125,0 0,-14.84375 -2.78125,0 z m 3.71875,0 0,14.84375 2.78125,0 0,-14.84375 -2.78125,0 z m 3.71875,0 0,14.84375 2.78125,0 0,-14.84375 -2.78125,0 z m 3.71875,0 0,14.84375 2.78125,0 0,-14.84375 -2.78125,0 z m 3.6875,0 0,14.84375 2.8125,0 0,-6.96875 c -0.56129,-2.68945 -1.29321,-5.31534 -2.1875,-7.875 l -0.625,0 z m -111.46875,15.3125 0,14.875 2.8125,0 0,-14.875 -2.8125,0 z m 3.71875,0 0,14.875 2.78125,0 0,-14.875 -2.78125,0 z m 7.4375,0 0,14.875 2.78125,0 0,-14.875 -2.78125,0 z m 100.3125,0 0,14.875 2.8125,0 0,-14.875 -2.8125,0 z m -111.46875,15.34375 0,14.84375 2.8125,0 0,-14.84375 -2.8125,0 z m 3.71875,0 0,14.84375 2.78125,0 0,-14.84375 -2.78125,0 z m 3.71875,0 0,14.84375 2.78125,0 0,-14.84375 -2.78125,0 z m 7.4375,0 0,14.84375 2.78125,0 0,-14.84375 -2.78125,0 z m 18.5625,0 0,14.84375 2.8125,0 0,-14.84375 -2.8125,0 z m 22.3125,0 0,14.84375 2.78125,0 0,-14.84375 -2.78125,0 z m 22.28125,0 0,14.84375 2.78125,0 0,-14.84375 -2.78125,0 z m 22.3125,0 0,14.84375 2.78125,0 0,-14.84375 -2.78125,0 z m -100.34375,15.3125 0,14.875 2.8125,0 0,-14.875 -2.8125,0 z m 3.71875,0 0,14.875 2.78125,0 0,-14.875 -2.78125,0 z m 3.71875,0 0,14.875 2.78125,0 0,-14.875 -2.78125,0 z m 3.71875,0 0,14.875 2.78125,0 0,-14.875 -2.78125,0 z m 3.71875,0 0,14.875 2.78125,0 0,-14.875 -2.78125,0 z m 3.71875,0 0,14.875 2.78125,0 0,-14.875 -2.78125,0 z m 3.71875,0 0,14.875 2.78125,0 0,-14.875 -2.78125,0 z m 3.71875,0 0,14.875 2.78125,0 0,-14.875 -2.78125,0 z m 3.71875,0 0,14.875 2.78125,0 0,-14.875 -2.78125,0 z m 3.6875,0 0,14.875 2.8125,0 0,-14.875 -2.8125,0 z m 3.71875,0 0,14.875 2.8125,0 0,-14.875 -2.8125,0 z m 3.71875,0 0,14.875 2.78125,0 0,-14.875 -2.78125,0 z m 3.71875,0 0,14.875 2.78125,0 0,-14.875 -2.78125,0 z m 3.71875,0 0,14.875 2.78125,0 0,-14.875 -2.78125,0 z m 3.71875,0 0,14.875 2.78125,0 0,-14.875 -2.78125,0 z m 7.4375,0 0,14.875 2.78125,0 0,-14.875 -2.78125,0 z m 11.15625,0 0,14.875 2.78125,0 0,-14.875 -2.78125,0 z m 3.6875,0 0,14.875 2.8125,0 0,-14.875 -2.8125,0 z m 3.71875,0 0,14.875 2.78125,0 0,-14.875 -2.78125,0 z m 3.71875,0 0,14.875 2.78125,0 0,-14.875 -2.78125,0 z m 3.71875,0 0,14.875 2.78125,0 0,-14.875 -2.78125,0 z m 7.4375,0 0,14.875 2.78125,0 0,-14.875 -2.78125,0 z m 3.71875,0 0,14.875 2.78125,0 0,-14.875 -2.78125,0 z m 3.71875,0 0,14.875 0.9375,0 c 0.62954,-0.77643 1.2505,-1.57133 1.84375,-2.375 l 0,-12.5 -2.78125,0 z m 7.4375,0 0,5.1875 c 0.92929,-1.69172 1.8189,-3.41258 2.59375,-5.1875 l -2.59375,0 z"
         transform="translate(130.64447,94.503991)"
         id="path22181-1-4-9"
         style="fill:#202c20;fill-opacity:1;fill-rule:nonzero;stroke:none" />
      <path
         d="m -284.21875,349.46875 0,11.71875 2.78125,0 0,-9.125 c -0.90541,-0.88868 -1.82467,-1.75522 -2.78125,-2.59375 z m -81.75,58.1875 0,14.84375 2.78125,0 0,-14.84375 -2.78125,0 z m 7.4375,0 0,14.84375 2.78125,0 0,-14.84375 -2.78125,0 z m 3.71875,0 0,14.84375 2.78125,0 0,-14.84375 -2.78125,0 z m 3.71875,0 0,14.84375 2.78125,0 0,-14.84375 -2.78125,0 z m 3.71875,0 0,14.84375 2.78125,0 0,-14.84375 -2.78125,0 z m 7.40625,0 0,14.84375 2.8125,0 0,-14.84375 -2.8125,0 z m 3.71875,0 0,14.84375 2.78125,0 0,-14.84375 -2.78125,0 z m 3.71875,0 0,14.84375 2.78125,0 0,-14.84375 -2.78125,0 z m 3.71875,0 0,14.84375 2.78125,0 0,-14.84375 -2.78125,0 z m 3.71875,0 0,14.84375 2.78125,0 0,-14.84375 -2.78125,0 z m 7.4375,0 0,14.84375 2.78125,0 0,-14.84375 -2.78125,0 z m 3.71875,0 0,14.84375 2.78125,0 0,-14.84375 -2.78125,0 z m 3.71875,0 0,14.84375 2.78125,0 0,-14.84375 -2.78125,0 z m 3.71875,0 0,14.84375 2.78125,0 0,-14.84375 -2.78125,0 z m 3.6875,0 0,14.84375 2.8125,0 0,-14.84375 -2.8125,0 z m 7.4375,0 0,14.84375 2.78125,0 0,-14.84375 -2.78125,0 z m 3.71875,0 0,14.84375 2.78125,0 0,-14.84375 -2.78125,0 z m 3.71875,0 0,14.84375 2.78125,0 0,-14.84375 -2.78125,0 z m 3.71875,0 0,14.84375 2.78125,0 0,-14.84375 -2.78125,0 z m 3.71875,0 0,14.84375 2.78125,0 0,-14.84375 -2.78125,0 z m 7.4375,0 0,14.84375 2.78125,0 0,-14.84375 -2.78125,0 z m 3.71875,0 0,14.84375 2.28125,0 c 0.17281,-0.4046 0.33546,-0.81015 0.5,-1.21875 l 0,-13.625 -2.78125,0 z m 3.6875,0 0,11.1875 c 1.236,-3.47769 2.19996,-7.09979 2.8125,-10.8125 l 0,-0.375 -2.8125,0 z m -55.71875,15.3125 0,14.875 2.78125,0 0,-14.875 -2.78125,0 z m 7.4375,0 0,14.875 2.78125,0 0,-14.875 -2.78125,0 z m 3.71875,0 0,14.875 2.78125,0 0,-14.875 -2.78125,0 z m 22.28125,0 0,14.875 2.78125,0 0,-14.875 -2.78125,0 z m 14.875,0 0,10.46875 c 0.98923,-1.45258 1.91248,-2.93954 2.78125,-4.46875 l 0,-6 -2.78125,0 z"
         transform="translate(130.64447,94.503991)"
         id="path22181-1-4-6"
         style="fill:#805020;fill-opacity:1;fill-rule:nonzero;stroke:none" />
      <path
         d="m -325.09375,346.34375 0,14.84375 2.78125,0 0,-14.84375 -2.78125,0 z m 3.71875,0 0,14.84375 2.78125,0 0,-14.84375 -2.78125,0 z m 3.71875,0 0,14.84375 2.78125,0 0,-14.84375 -2.78125,0 z m 3.71875,0 0,14.84375 2.78125,0 0,-14.84375 -2.78125,0 z m 7.4375,0 0,14.84375 2.78125,0 0,-14.84375 -2.78125,0 z m 26,6.15625 0,8.6875 2.78125,0 0,-5.71875 c -0.90001,-1.01643 -1.81906,-2.00689 -2.78125,-2.96875 z m -14.875,24.5 0,14.84375 2.78125,0 0,-14.84375 -2.78125,0 z m 3.71875,0 0,14.84375 2.78125,0 0,-14.84375 -2.78125,0 z m -78.03125,15.3125 0,14.875 2.78125,0 0,-14.875 -2.78125,0 z m 7.4375,0 0,14.875 2.78125,0 0,-14.875 -2.78125,0 z m 3.71875,0 0,14.875 2.78125,0 0,-14.875 -2.78125,0 z m 3.71875,0 0,14.875 2.78125,0 0,-14.875 -2.78125,0 z m 3.71875,0 0,14.875 2.78125,0 0,-14.875 -2.78125,0 z m 3.71875,0 0,14.875 2.78125,0 0,-14.875 -2.78125,0 z m 3.6875,0 0,14.875 2.8125,0 0,-14.875 -2.8125,0 z m 3.71875,0 0,14.875 2.8125,0 0,-14.875 -2.8125,0 z m 3.71875,0 0,14.875 2.78125,0 0,-14.875 -2.78125,0 z m 3.71875,0 0,14.875 2.78125,0 0,-14.875 -2.78125,0 z m 3.71875,0 0,14.875 2.78125,0 0,-14.875 -2.78125,0 z m 3.71875,0 0,14.875 2.78125,0 0,-14.875 -2.78125,0 z m 3.71875,0 0,14.875 2.78125,0 0,-14.875 -2.78125,0 z m 3.71875,0 0,14.875 2.78125,0 0,-14.875 -2.78125,0 z m 3.71875,0 0,14.875 2.78125,0 0,-14.875 -2.78125,0 z m 3.71875,0 0,14.875 2.78125,0 0,-14.875 -2.78125,0 z m 3.71875,0 0,14.875 2.78125,0 0,-14.875 -2.78125,0 z m 3.6875,0 0,14.875 2.8125,0 0,-14.875 -2.8125,0 z m 3.71875,0 0,14.875 2.78125,0 0,-14.875 -2.78125,0 z m 3.71875,0 0,14.875 2.78125,0 0,-14.875 -2.78125,0 z m 3.71875,0 0,14.875 2.78125,0 0,-14.875 -2.78125,0 z m 3.71875,0 0,14.875 2.78125,0 0,-14.875 -2.78125,0 z m 3.71875,0 0,14.875 2.78125,0 0,-14.875 -2.78125,0 z m 3.71875,0 0,14.875 2.78125,0 0,-14.875 -2.78125,0 z m 3.71875,0 0,14.875 2.78125,0 0,-14.875 -2.78125,0 z m 3.71875,0 0,14.875 2.78125,0 0,-14.875 -2.78125,0 z m 3.71875,0 0,14.875 2.78125,0 0,-14.875 -2.78125,0 z"
         transform="translate(130.64447,94.503991)"
         id="path22181-1-4-7"
         style="fill:#802020;fill-opacity:1;fill-rule:nonzero;stroke:none" />
      <path
         d="m -380.84375,353.84375 c -2.18011,2.30582 -4.177,4.75773 -6,7.34375 l 6,0 0,-7.34375 z m -2.78125,24.0625 0,13.9375 2.78125,0 0,-13.9375 -2.78125,0 z M -398.3125,393.25 c -0.1058,1.48895 -0.1875,2.98539 -0.1875,4.5 0,3.207 0.25306,6.35382 0.71875,9.4375 l 16.9375,0 0,-13.9375 -17.46875,0 z m 5.5,30.65625 c 2.28179,5.00332 5.20251,9.67794 8.65625,13.9375 l 3.3125,0 0,-13.9375 -11.96875,0 z"
         transform="translate(130.64447,94.503991)"
         id="path22181-1-4-2"
         style="fill:#512c52;fill-opacity:1;fill-rule:nonzero;stroke:none" />
      <path
         d="m -387.96875,362.59375 c -2.89518,4.32742 -5.2544,8.99583 -7.03125,13.9375 l 14.15625,0 0,-13.9375 -7.125,0 z m -7.53125,15.3125 c -1.48627,4.45668 -2.48138,9.12327 -2.9375,13.9375 l 14.8125,0 0,-13.9375 -11.875,0 z m -2.3125,30.65625 c 0.83499,4.84551 2.2425,9.51243 4.125,13.9375 l 12.84375,0 0,-13.9375 -16.96875,0 z"
         transform="translate(130.64447,94.503991)"
         id="path22181-1"
         style="fill:#1e5f52;fill-opacity:1;fill-rule:nonzero;stroke:none" />
      <path
         d="m 85.75,394.73352 a 7.25,4.375 0 1 1 0.0039,0.1434"
         transform="matrix(1.6994857,-0.62377609,0.44300834,1.2069817,-560.3864,35.290144)"
         id="path23952-8"
         style="fill:#ffffff;fill-opacity:0.24734982;fill-rule:nonzero;stroke:none" />
    </g>
  </g>
</svg>
